<svg id="Capa_1" data-name="Capa 1" xmlns="http://www.w3.org/2000/svg" viewBox="0 0 277.91 113"><defs><style>.cls-1,.cls-2{fill:#7d170f;}.cls-2{stroke:#7d170f;stroke-miterlimit:10;stroke-width:0.25px;}</style></defs><path class="cls-1" d="M1.3,57.4V114H36.53V98c.07-6.67,4-5,4-5h39a3.87,3.87,0,0,1,4.19,4.19V114h24.36V57.4H90.57C86.15,69,74.91,76.42,61.79,77.23,46.69,78.16,38,68.51,33.37,57.4Z" transform="translate(-1.3 -1)"/><path class="cls-1" d="M108.06,52.76C101.85-2.48,55.15,1.05,55.15,1.05.37,2.13,1.3,52.56,1.3,52.56H31.64A28.78,28.78,0,0,1,31,46.43a30.8,30.8,0,0,1,61.6,0A36.7,36.7,0,0,1,92,52.76Z" transform="translate(-1.3 -1)"/><path class="cls-1" d="M148.33,47H127.61V60.35h-4.86V36.48a27.65,27.65,0,0,1,.67-6.6,15.38,15.38,0,0,1,2.26-5,15,15,0,0,1,26.88,5,28.32,28.32,0,0,1,.6,6.54v23.9h-4.83Zm-20.72-4.78h20.72V37.06a23.27,23.27,0,0,0-.71-6.58,10.39,10.39,0,0,0-4.23-5.69,9.83,9.83,0,0,0-11.61.54A10.84,10.84,0,0,0,128,31.57a28.43,28.43,0,0,0-.41,5.49Z" transform="translate(-1.3 -1)"/><path class="cls-1" d="M181.22,30.36h4.15v15a19.73,19.73,0,0,1-1.31,8.09,12.7,12.7,0,0,1-11.63,7.45,12.15,12.15,0,0,1-9.56-4.3A12.41,12.41,0,0,1,160,51.08a28.09,28.09,0,0,1-.5-5.69v-15h4.15V45.78c0,3.68.8,6.39,2.42,8.15a8.36,8.36,0,0,0,10.26,1.89,8.84,8.84,0,0,0,3.12-2.71c1.17-1.61,1.75-4.06,1.75-7.33Z" transform="translate(-1.3 -1)"/><path class="cls-1" d="M207.81,30.12v4.15a5.42,5.42,0,0,0-1.22-.18,5,5,0,0,0-4.82,2.66,14.56,14.56,0,0,0-1.31,4.88c-.08.51-.18,1.95-.32,4.33a40,40,0,0,1-.82,6.11,15.46,15.46,0,0,1-1.64,4.25,8.22,8.22,0,0,1-7.58,4.46,10.36,10.36,0,0,1-1.92-.21V56.48a7.84,7.84,0,0,0,1.54.18,4.9,4.9,0,0,0,2.72-.81,5.34,5.34,0,0,0,1.93-2.19A17,17,0,0,0,195.7,48c.06-.54.16-2,.32-4.45q.39-6.39,2.7-9.85a8.66,8.66,0,0,1,3.76-3.06,7.93,7.93,0,0,1,3.1-.66A18.29,18.29,0,0,1,207.81,30.12Z" transform="translate(-1.3 -1)"/><path class="cls-1" d="M214.61,34.51V46.39a20,20,0,0,0,.57,5.6q1.47,4.63,7.1,4.64a12.32,12.32,0,0,0,2.16-.22v4.18a16.92,16.92,0,0,1-2.4.19,11.64,11.64,0,0,1-8.25-2.94,9.52,9.52,0,0,1-3-5.58,39.65,39.65,0,0,1-.36-5.84V21.49h4.17v8.87h9.83v4.15Z" transform="translate(-1.3 -1)"/><path class="cls-1" d="M231.22,60.35h-4.14V46.21a25,25,0,0,1,.86-7.7A12.79,12.79,0,0,1,239.84,30q.53,0,1.59.09v4.27a14.69,14.69,0,0,0-1.54-.12,7.94,7.94,0,0,0-3.78,1,8.55,8.55,0,0,0-3,2.6,9,9,0,0,0-1.6,4.06,31.58,31.58,0,0,0-.27,4.37Z" transform="translate(-1.3 -1)"/><path class="cls-2" d="M262.76,50.33H247.22v10h-3.64V42.45a20.74,20.74,0,0,1,.5-5,11.52,11.52,0,0,1,1.7-3.73,11.24,11.24,0,0,1,20.16,3.75,21.36,21.36,0,0,1,.44,4.91V60.35h-3.62Zm-15.54-3.59h15.54V42.88a17.12,17.12,0,0,0-.53-4.93,7.79,7.79,0,0,0-3.17-4.27,7.37,7.37,0,0,0-8.71.41,8.11,8.11,0,0,0-2.82,4.68,21.42,21.42,0,0,0-.31,4.11Z" transform="translate(-1.3 -1)"/><path class="cls-1" d="M275.69,19V60.35h-4.18V19Z" transform="translate(-1.3 -1)"/><path class="cls-1" d="M137.41,89.71h-1.47V83.78h-6.63v5.93h-1.47V77.11h1.47v5.36h6.63V77.11h1.47Z" transform="translate(-1.3 -1)"/><path class="cls-1" d="M151.8,83.4a6.92,6.92,0,0,1-1.53,4.75A5.36,5.36,0,0,1,146,89.88a5.43,5.43,0,0,1-4.3-1.7,7,7,0,0,1-1.51-4.8,6.91,6.91,0,0,1,1.51-4.77A5.5,5.5,0,0,1,146,76.92a5.35,5.35,0,0,1,4.24,1.72A6.91,6.91,0,0,1,151.8,83.4Zm-10,0a6,6,0,0,0,1.09,3.88A3.88,3.88,0,0,0,146,88.6a3.83,3.83,0,0,0,3.16-1.32,7.53,7.53,0,0,0,0-7.74A3.8,3.8,0,0,0,146,78.23a3.9,3.9,0,0,0-3.18,1.32A5.89,5.89,0,0,0,141.76,83.4Z" transform="translate(-1.3 -1)"/><path class="cls-1" d="M158.48,89.71H157V78.41h-4v-1.3h9.44v1.3h-4Z" transform="translate(-1.3 -1)"/><path class="cls-1" d="M171.39,89.71h-7V77.11h7v1.3h-5.56v4.06h5.23v1.3h-5.23V88.4h5.56Z" transform="translate(-1.3 -1)"/><path class="cls-1" d="M174.18,89.71V77.11h1.47V88.38h5.56v1.33Z" transform="translate(-1.3 -1)"/><path class="cls-1" d="M187.17,86.45a3.41,3.41,0,0,1,.6-2,6.54,6.54,0,0,1,2.15-1.74,10.47,10.47,0,0,1-1-1.24,4.14,4.14,0,0,1-.41-.88,2.73,2.73,0,0,1-.16-.94,2.51,2.51,0,0,1,.84-2,3.54,3.54,0,0,1,2.36-.72,3.14,3.14,0,0,1,2.19.71,2.55,2.55,0,0,1,.81,2,2.79,2.79,0,0,1-.59,1.7A6.6,6.6,0,0,1,192,82.92l3.51,3.37A4.17,4.17,0,0,0,196.3,85a10.87,10.87,0,0,0,.49-1.58h1.44a8.16,8.16,0,0,1-1.76,3.74L199,89.71h-2l-1.59-1.53a6.08,6.08,0,0,1-4.42,1.7,4.15,4.15,0,0,1-2.87-.91A3.21,3.21,0,0,1,187.17,86.45Zm3.93,2.15a4.76,4.76,0,0,0,3.45-1.33l-3.77-3.65a7.71,7.71,0,0,0-1.35,1,2.51,2.51,0,0,0-.59.82,2.62,2.62,0,0,0-.19,1,2,2,0,0,0,.67,1.6A2.62,2.62,0,0,0,191.1,88.6Zm-1.34-9a2.29,2.29,0,0,0,.31,1.13,6.79,6.79,0,0,0,1.06,1.3,5.73,5.73,0,0,0,1.55-1.19,2,2,0,0,0,.44-1.26,1.42,1.42,0,0,0-.45-1.09,1.68,1.68,0,0,0-1.18-.41,1.83,1.83,0,0,0-1.25.41A1.4,1.4,0,0,0,189.76,79.62Z" transform="translate(-1.3 -1)"/><path class="cls-1" d="M210.79,78.24a4.09,4.09,0,0,0-3.28,1.39,5.57,5.57,0,0,0-1.2,3.78,5.63,5.63,0,0,0,1.16,3.82,4.1,4.1,0,0,0,3.3,1.35,11.55,11.55,0,0,0,3-.47v1.28a9.19,9.19,0,0,1-3.23.49,5.46,5.46,0,0,1-4.3-1.69,6.92,6.92,0,0,1-1.51-4.79,7.55,7.55,0,0,1,.73-3.42,5.14,5.14,0,0,1,2.1-2.25,6.38,6.38,0,0,1,3.24-.8,7.7,7.7,0,0,1,3.46.73l-.62,1.25A6.79,6.79,0,0,0,210.79,78.24Z" transform="translate(-1.3 -1)"/><path class="cls-1" d="M223.55,89.71h-7V77.11h7v1.3H218v4.06h5.22v1.3H218V88.4h5.56Z" transform="translate(-1.3 -1)"/><path class="cls-1" d="M236.18,89.71h-1.67l-6.88-10.57h-.07c.09,1.24.14,2.38.14,3.41v7.16h-1.36V77.11H228l6.86,10.53h.07c0-.15,0-.65-.07-1.49s-.06-1.45-.05-1.81V77.11h1.37Z" transform="translate(-1.3 -1)"/><path class="cls-1" d="M243.52,89.71h-1.46V78.41h-4v-1.3h9.44v1.3h-4Z" transform="translate(-1.3 -1)"/><path class="cls-1" d="M250.87,84.47v5.24h-1.46V77.11h3.46a5.44,5.44,0,0,1,3.42.89,3.21,3.21,0,0,1,1.11,2.67,3.35,3.35,0,0,1-2.54,3.38l3.43,5.66h-1.74l-3.05-5.24Zm0-1.26h2a3.49,3.49,0,0,0,2.28-.61,2.3,2.3,0,0,0,.72-1.85,2.11,2.11,0,0,0-.73-1.8,4,4,0,0,0-2.37-.55h-1.91Z" transform="translate(-1.3 -1)"/><path class="cls-1" d="M271.25,83.4a7,7,0,0,1-1.52,4.75,6.19,6.19,0,0,1-8.55,0,7,7,0,0,1-1.52-4.8,6.92,6.92,0,0,1,1.52-4.77,5.48,5.48,0,0,1,4.31-1.69,5.37,5.37,0,0,1,4.24,1.72A6.91,6.91,0,0,1,271.25,83.4Zm-10,0a6,6,0,0,0,1.09,3.88,3.85,3.85,0,0,0,3.16,1.32,3.81,3.81,0,0,0,3.16-1.32,6,6,0,0,0,1.07-3.88,6,6,0,0,0-1.06-3.86,3.8,3.8,0,0,0-3.15-1.31,3.87,3.87,0,0,0-3.18,1.32A5.89,5.89,0,0,0,261.22,83.4Z" transform="translate(-1.3 -1)"/><path class="cls-1" d="M130.17,102.7a6.35,6.35,0,0,1-1.69,4.77,6.69,6.69,0,0,1-4.87,1.65h-3.49V96.53H124a5.63,5.63,0,0,1,6.19,6.17Zm-1.55.06A5.09,5.09,0,0,0,127.39,99a5,5,0,0,0-3.68-1.25h-2.13v10.07h1.79a5.39,5.39,0,0,0,3.93-1.29A5.1,5.1,0,0,0,128.62,102.76Z" transform="translate(-1.3 -1)"/><path class="cls-1" d="M140,109.12h-7V96.53h7v1.3h-5.56v4.06h5.22v1.29h-5.22v4.63H140Z" transform="translate(-1.3 -1)"/><path class="cls-1" d="M152.78,97.65A4.09,4.09,0,0,0,149.5,99a5.57,5.57,0,0,0-1.2,3.78,5.73,5.73,0,0,0,1.15,3.83,4.17,4.17,0,0,0,3.31,1.34,11.14,11.14,0,0,0,3-.47v1.28a9.21,9.21,0,0,1-3.23.5,5.49,5.49,0,0,1-4.3-1.69,7,7,0,0,1-1.51-4.8,7.61,7.61,0,0,1,.72-3.41,5.24,5.24,0,0,1,2.11-2.26,6.32,6.32,0,0,1,3.23-.8,7.88,7.88,0,0,1,3.47.73l-.62,1.26A6.69,6.69,0,0,0,152.78,97.65Z" transform="translate(-1.3 -1)"/><path class="cls-1" d="M169.45,102.81a6.92,6.92,0,0,1-1.53,4.75,5.37,5.37,0,0,1-4.25,1.74,5.44,5.44,0,0,1-4.3-1.71,8.31,8.31,0,0,1,0-9.57,5.47,5.47,0,0,1,4.31-1.69,5.34,5.34,0,0,1,4.23,1.72A6.93,6.93,0,0,1,169.45,102.81Zm-10,0a6,6,0,0,0,1.09,3.88,3.88,3.88,0,0,0,3.17,1.32,3.83,3.83,0,0,0,3.16-1.32,7.53,7.53,0,0,0,0-7.74,3.78,3.78,0,0,0-3.14-1.31A3.9,3.9,0,0,0,160.5,99,6,6,0,0,0,159.41,102.81Z" transform="translate(-1.3 -1)"/><path class="cls-1" d="M182.1,109.12h-1.67l-6.89-10.57h-.07c.1,1.24.14,2.38.14,3.41v7.16h-1.35V96.53h1.65l6.87,10.53h.07c0-.16,0-.66-.08-1.5s-.05-1.44,0-1.8V96.53h1.37Z" transform="translate(-1.3 -1)"/><path class="cls-1" d="M192.76,96.53h1.58l-4.55,12.59h-1.44l-4.52-12.59h1.55l2.9,8.15a23.68,23.68,0,0,1,.79,2.73,23.7,23.7,0,0,1,.81-2.78Z" transform="translate(-1.3 -1)"/><path class="cls-1" d="M203.09,109.12h-7V96.53h7v1.3h-5.56v4.06h5.22v1.29h-5.22v4.63h5.56Z" transform="translate(-1.3 -1)"/><path class="cls-1" d="M215.72,109.12h-1.67l-6.88-10.57h-.07c.09,1.24.14,2.38.14,3.41v7.16h-1.36V96.53h1.66l6.86,10.53h.07c0-.16,0-.66-.07-1.5s-.06-1.44-.05-1.8V96.53h1.37Z" transform="translate(-1.3 -1)"/><path class="cls-1" d="M224.58,97.65A4.11,4.11,0,0,0,221.3,99a5.57,5.57,0,0,0-1.2,3.78,5.73,5.73,0,0,0,1.16,3.83,4.13,4.13,0,0,0,3.3,1.34,11.14,11.14,0,0,0,3-.47v1.28a9.17,9.17,0,0,1-3.23.5,5.49,5.49,0,0,1-4.3-1.69,7,7,0,0,1-1.51-4.8,7.61,7.61,0,0,1,.73-3.41,5.28,5.28,0,0,1,2.1-2.26,6.38,6.38,0,0,1,3.24-.8,7.83,7.83,0,0,1,3.46.73l-.62,1.26A6.66,6.66,0,0,0,224.58,97.65Z" transform="translate(-1.3 -1)"/><path class="cls-1" d="M230.32,109.12V96.53h1.46v12.59Z" transform="translate(-1.3 -1)"/><path class="cls-1" d="M246.18,102.81a6.92,6.92,0,0,1-1.54,4.75,5.34,5.34,0,0,1-4.25,1.74,5.42,5.42,0,0,1-4.29-1.71,8.34,8.34,0,0,1,0-9.57,5.48,5.48,0,0,1,4.31-1.69,5.37,5.37,0,0,1,4.24,1.72A6.93,6.93,0,0,1,246.18,102.81Zm-10,0a6,6,0,0,0,1.09,3.88,4.45,4.45,0,0,0,6.33,0,7.59,7.59,0,0,0,0-7.74,3.8,3.8,0,0,0-3.15-1.31A3.87,3.87,0,0,0,237.23,99,5.89,5.89,0,0,0,236.14,102.81Z" transform="translate(-1.3 -1)"/><path class="cls-1" d="M258.82,109.12h-1.67l-6.88-10.57h-.07c.09,1.24.14,2.38.14,3.41v7.16H249V96.53h1.66l6.87,10.53h.07c0-.16,0-.66-.08-1.5s-.06-1.44-.05-1.8V96.53h1.37Z" transform="translate(-1.3 -1)"/><path class="cls-1" d="M269.31,109.12h-7V96.53h7v1.3h-5.56v4.06H269v1.29h-5.23v4.63h5.56Z" transform="translate(-1.3 -1)"/><path class="cls-1" d="M279.21,105.77a3.12,3.12,0,0,1-1.2,2.6,5.26,5.26,0,0,1-3.28.93,8.32,8.32,0,0,1-3.45-.58v-1.41a9.28,9.28,0,0,0,1.69.51,8.7,8.7,0,0,0,1.81.19,3.68,3.68,0,0,0,2.21-.55,1.84,1.84,0,0,0,.74-1.55,2,2,0,0,0-.26-1.07,2.43,2.43,0,0,0-.88-.77,11.88,11.88,0,0,0-1.88-.81,5.82,5.82,0,0,1-2.51-1.49,3.29,3.29,0,0,1-.75-2.25,2.77,2.77,0,0,1,1.09-2.31,4.53,4.53,0,0,1,2.9-.87,8.5,8.5,0,0,1,3.45.69l-.45,1.28a7.76,7.76,0,0,0-3-.66,2.93,2.93,0,0,0-1.81.5,1.66,1.66,0,0,0-.66,1.39,2.09,2.09,0,0,0,.24,1.07,2.19,2.19,0,0,0,.82.77,10,10,0,0,0,1.75.77,7,7,0,0,1,2.73,1.52A3,3,0,0,1,279.21,105.77Z" transform="translate(-1.3 -1)"/></svg>